HIERARCHY
ROOT Hips
{
	OFFSET 0.00000 0.00000 0.00000
	CHANNELS 6 Xposition Yposition Zposition Yrotation Zrotation Xrotation 
	JOINT Lumbar
	{
		OFFSET 0 0 0
		CHANNELS 3 Zrotation Xrotation Yrotation
		JOINT Neck
		{
			OFFSET 0.00 0.2701 0.00
			CHANNELS 3 Zrotation Xrotation Yrotation
			End Site
			{
				OFFSET 0.00 0.1379 0.00
			}
		}
		JOINT RightShoulder
		{
			OFFSET 0.0119 0.2289 0.1181
			CHANNELS 3 Zrotation Xrotation Yrotation
			JOINT RightElbow
			{
				OFFSET 0.00 -0.1475 0.00
				CHANNELS 2 Zrotation Yrotation
				JOINT RightWrist
				{
					OFFSET 0.00 -0.1605 0.00
					CHANNELS 2 Zrotation Xrotation
					End Site
					{
						OFFSET 0.0040 -0.1068 0.0006
					}
				}
			}
		}
		JOINT LeftShoulder
		{
			OFFSET 0.0119 0.2289 -0.1181
			CHANNELS 3 Zrotation Xrotation Yrotation
			JOINT LeftElbow
			{
				OFFSET 0.00 -0.1475 0.00
				CHANNELS 2 Zrotation Yrotation
				JOINT LeftWrist
				{
					OFFSET 0.00 -0.1605 0.00
					CHANNELS 2 Zrotation Xrotation
					End Site
					{
						OFFSET 0.0040 -0.1068 -0.0006
					}
				}
			}
		}
	}
	JOINT RightHip
	{
		OFFSET 0.0316 -0.0424 0.0458
		CHANNELS 3 Zrotation Xrotation Yrotation
		JOINT RightKnee
		{
			OFFSET 0.00 -0.2438 0.00
			CHANNELS 1 Zrotation
			JOINT RightAnkle
			{
				OFFSET 0.00 -0.2449 0.00
				CHANNELS 3 Zrotation Xrotation Yrotation
				End Site
				{
					OFFSET 0.1237 -0.0542 0.0051
				}
			}
		}
	}
	JOINT LeftHip
	{
		OFFSET 0.0316 -0.0424 -0.0458
		CHANNELS 3 Zrotation Xrotation Yrotation
		JOINT LeftKnee
		{
			OFFSET 0.00 -0.2438 0.00
			CHANNELS 1 Zrotation
			JOINT LeftAnkle
			{
				OFFSET 0.00 -0.2449 0.00
				CHANNELS 3 Zrotation Xrotation Yrotation
				End Site
				{
					OFFSET 0.1237 -0.0542 -0.0051
				}
			}
		}
	}
}
MOTION
Frames: 28
Frame Time: 0.02
3e-05 -1e-05 2e-05 -539.08081 -36.14274 -2.74367 43.98199 2.82828 -3.39056 -8.63357 -2.27517 -1.24177 -62.5667 -81.27789 -87.1464 8.08051 76.53333 -5.62207 3.59119 82.83118 97.80179 -55.63372 5.78706 -103.15025 12.05999 -2.44083 39.31267 -4.64237 -10.79862 -22.13739 -6.59458 -2.11847 -3.22575 43.61943 10.31456 7.5041 -27.65606 -6.51802 2.1235 3.25101
9e-05 -1e-05 3e-05 -539.07061 -36.1424 -2.74461 43.97512 2.8243 -3.38593 -8.62723 -2.27526 -1.24202 -62.5667 -81.26623 -87.1464 8.08463 76.537 -5.53291 3.60358 83.09466 97.78312 -55.63372 5.78706 -103.18274 12.06814 -2.48131 39.3215 -4.62827 -10.72408 -22.1422 -6.59451 -2.12093 -3.23119 43.63025 10.29678 7.43076 -27.65761 -6.51826 2.12554 3.25382
0.00014 -1e-05 4e-05 -539.06043 -36.14204 -2.74553 43.96827 2.82033 -3.38132 -8.6209 -2.27535 -1.24227 -62.5667 -81.25462 -87.1464 8.08874 76.54065 -5.44394 3.61595 83.35765 97.7645 -55.63372 5.78706 -103.21513 12.07627 -2.52174 39.33029 -4.61421 -10.64978 -22.147 -6.59444 -2.12338 -3.23661 43.64102 10.27905 7.35763 -27.65916 -6.51851 2.12759 3.25663
0.0002 -1e-05 4e-05 -539.05027 -36.14171 -2.74646 43.96143 2.81637 -3.37671 -8.61458 -2.27544 -1.24251 -62.5667 -81.243 -87.1464 8.09285 76.54431 -5.35504 3.6283 83.62037 97.74588 -55.63372 5.78706 -103.24751 12.0844 -2.56211 39.3391 -4.60014 -10.57547 -22.1518 -6.59437 -2.12583 -3.24203 43.65181 10.26133 7.28453 -27.6607 -6.51875 2.12963 3.25943
0.00025 -1e-05 5e-05 -539.04007 -36.14136 -2.74739 43.95458 2.8124 -3.37209 -8.60824 -2.27552 -1.24276 -62.5667 -81.23133 -87.1464 8.09697 76.54799 -5.26597 3.64068 83.88344 97.72723 -55.63372 5.78705 -103.27998 12.09255 -2.60251 39.34792 -4.58604 -10.50095 -22.15661 -6.5943 -2.12828 -3.24747 43.66262 10.24355 7.21118 -27.66225 -6.51899 2.13167 3.26225
0.00031 -1e-05 6e-05 -539.02992 -36.14098 -2.74831 43.94769 2.80843 -3.36752 -8.60196 -2.27561 -1.24301 -62.5667 -81.21985 -87.1464 8.10107 76.55158 -5.17724 3.65302 84.14624 97.70868 -55.63372 5.78705 -103.3122 12.10066 -2.64298 39.35663 -4.57207 -10.42714 -22.16138 -6.59423 -2.13071 -3.25285 43.67332 10.22593 7.1385 -27.66378 -6.51923 2.13371 3.26504
0.00037 -1e-05 7e-05 -539.01971 -36.14073 -2.74926 43.94095 2.80446 -3.36284 -8.59557 -2.2757 -1.24325 -62.5667 -81.208 -87.1464 8.1052 76.55536 -5.08791 3.66542 84.40931 97.68993 -55.63373 5.78705 -103.34489 12.10883 -2.68327 39.36564 -4.55783 -10.3519 -22.16624 -6.59415 -2.13319 -3.25834 43.6843 10.20803 7.06464 -27.66536 -6.51947 2.13574 3.26787
0.00042 -1e-05 8e-05 -539.00953 -36.14023 -2.75017 43.93394 2.80049 -3.35827 -8.58928 -2.27578 -1.24352 -62.5667 -81.19649 -87.1464 8.1093 76.55896 -4.99914 3.67776 84.67208 97.67137 -55.63373 5.78705 -103.37714 12.11694 -2.72372 39.3742 -4.54387 -10.27811 -22.17099 -6.59408 -2.13561 -3.26373 43.69486 10.19035 6.99174 -27.66687 -6.51971 2.1378 3.27067
0.00048 -1e-05 9e-05 -538.99949 -36.13996 -2.75107 43.92715 2.79654 -3.35377 -8.58309 -2.27586 -1.24376 -62.5667 -81.18539 -87.1464 8.11338 76.56234 -4.91097 3.69006 84.9349 97.65304 -55.63373 5.78704 -103.40891 12.12499 -2.76443 39.38291 -4.53015 -10.20554 -22.17569 -6.59402 -2.13803 -3.26902 43.70554 10.17306 6.92049 -27.66839 -6.51996 2.13985 3.27343
0.00053 -1e-05 0.0001 -538.98895 -36.13999 -2.75212 43.92072 2.79253 -3.34869 -8.57626 -2.27598 -1.24394 -62.5667 -81.17191 -87.1464 8.11761 76.56697 -4.8191 3.70266 85.19871 97.63336 -55.63373 5.78704 -103.4436 12.13343 -2.80384 39.39285 -4.51473 -10.1243 -22.18095 -6.59393 -2.14066 -3.27493 43.71744 10.15392 6.84117 -27.67013 -6.52019 2.14181 3.27639
0.00058 -1e-05 0.00011 -538.97925 -36.13834 -2.75281 43.91249 2.78862 -3.34497 -8.57082 -2.27601 -1.24439 -62.5667 -81.16345 -87.1464 8.12151 76.56898 -4.73523 3.71461 85.45954 97.61657 -55.63373 5.78704 -103.47204 12.14104 -2.84585 39.39885 -4.50308 -10.06243 -22.18484 -6.59388 -2.14273 -3.27949 43.72557 10.13843 6.77797 -27.67126 -6.52045 2.14403 3.27896
0.00061 -1e-05 0.00012 -538.97365 -36.14116 -2.75297 43.9084 2.78532 -3.34384 -8.56884 -2.27591 -1.24441 -62.5667 -81.169 -87.1464 8.12452 76.56374 -4.67181 3.72486 85.71951 97.60757 -55.63373 5.78704 -103.4839 12.14625 -2.89635 39.40565 -4.5003 -10.04476 -22.18666 -6.59405 -2.14422 -3.2807 43.73373 10.13506 6.7672 -27.67178 -6.52075 2.14643 3.28018
0.00062 -1e-05 0.00013 -538.96864 -36.14105 -2.7527 43.90125 2.78208 -3.34424 -8.56832 -2.27572 -1.24488 -62.5667 -81.17956 -87.1464 8.12716 76.55589 -4.61673 3.73442 85.9751 97.60153 -55.63373 5.78704 -103.48939 12.15062 -2.9492 39.40688 -4.5015 -10.04776 -22.18687 -6.59426 -2.14501 -3.2805 43.73668 10.13503 6.7713 -27.67154 -6.52107 2.14917 3.28106
0.00064 -1e-05 0.00013 -538.96203 -36.13579 -2.7523 43.88901 2.77855 -3.34481 -8.56735 -2.2755 -1.24595 -62.5667 -81.18769 -87.1464 8.12997 76.54927 -4.55876 3.74425 86.22799 97.59424 -55.63373 5.78703 -103.49739 12.15545 -3.0001 39.40235 -4.50196 -10.04773 -22.18661 -6.59437 -2.14543 -3.28068 43.73463 10.13203 6.76295 -27.6709 -6.5214 2.1521 3.28227
0.00066 -1e-05 0.00014 -538.96064 -36.15608 -2.75317 43.90235 2.77603 -3.34201 -8.56545 -2.27554 -1.24378 -62.5667 -81.19644 -87.1464 8.13286 76.54242 -4.49688 3.75432 86.50082 97.58653 -55.63373 5.78703 -103.50692 12.15999 -3.05477 39.43052 -4.49825 -10.02271 -22.19109 -6.59478 -2.14859 -3.28187 43.76165 10.1349 6.77781 -27.67321 -6.52168 2.15363 3.28273
0.00067 -1e-05 0.00015 -538.94903 -36.1247 -2.75141 43.86392 2.77154 -3.34626 -8.56586 -2.27504 -1.24831 -62.5667 -81.20511 -87.1464 8.13542 76.53549 -4.44527 3.76365 86.73087 97.58041 -55.63374 5.78703 -103.51184 12.16489 -3.1021 39.39211 -4.50376 -10.05234 -22.18571 -6.59461 -2.14611 -3.28072 43.7294 10.12665 6.74893 -27.66945 -6.52205 2.1581 3.28466
0.00066 -1e-05 0.00016 -538.90447 -35.93138 -2.7414 43.66332 2.76076 -3.37243 -8.57194 -2.27277 -1.27254 -62.5667 -81.21222 -87.1464 8.13774 76.52856 -4.41868 3.77165 86.84636 97.57781 -55.6338 5.78701 -103.50503 12.17155 -3.12903 39.14602 -4.53745 -10.24853 -22.14997 -6.59267 -2.12604 -3.27256 43.51238 10.08425 6.58614 -27.64688 -6.52261 2.17109 3.291
0.00065 -1e-05 0.00017 -538.85035 -35.6894 -2.72894 43.41395 2.74815 -3.4052 -8.58034 -2.27001 -1.30329 -62.5667 -81.21906 -87.1464 8.13969 76.52171 -4.40234 3.77881 86.91892 97.57671 -55.63389 5.78698 -103.49397 12.17852 -3.14844 38.8372 -4.57975 -10.49587 -22.10495 -6.5902 -2.10063 -3.26223 43.23951 10.03102 6.38062 -27.6186 -6.52325 2.18692 3.29878
0.00063 -2e-05 0.00017 -538.80378 -35.48342 -2.71837 43.20064 2.73696 -3.43299 -8.58788 -2.26767 -1.33016 -62.5667 -81.22614 -87.1464 8.14135 76.51509 -4.38223 3.78599 87.0089 97.57507 -55.63396 5.78696 -103.48515 12.185 -3.17092 38.57445 -4.61553 -10.70521 -22.06662 -6.58811 -2.07917 -3.25351 43.00762 9.98447 6.20086 -27.59447 -6.52386 2.20113 3.30574
0.00062 -2e-05 0.00018 -538.74421 -35.22075 -2.70463 42.93065 2.72338 -3.46886 -8.59468 -2.2645 -1.3608 -62.5667 -81.23306 -87.1464 8.14466 76.50729 -4.35886 3.79471 87.1057 97.57306 -55.63404 5.78693 -103.47458 12.19292 -3.19475 38.24 -4.66191 -10.97443 -22.01815 -6.58543 -2.05156 -3.24225 42.71201 9.93062 5.99474 -27.56398 -6.52443 2.21678 3.31342
0.00061 -2e-05 0.00018 -538.70878 -35.06207 -2.69677 42.76454 2.71424 -3.48989 -8.60354 -2.26292 -1.38527 -62.5667 -81.24001 -87.1464 8.14478 76.50197 -4.34436 3.80002 87.18047 97.57198 -55.6341 5.78691 -103.46703 12.19794 -3.21419 38.03678 -4.6889 -11.13472 -21.98817 -6.58384 -2.03512 -3.2356 42.53304 9.88933 5.83328 -27.5451 -6.5251 2.23003 3.3199
0.00058 -2e-05 0.00018 -538.74825 -35.2252 -2.70715 42.9207 2.71865 -3.46442 -8.61768 -2.26594 -1.3899 -62.56669 -81.24851 -87.1464 8.1338 76.50359 -4.35379 3.79618 87.18533 97.57424 -55.63411 5.7869 -103.46621 12.19478 -3.22131 38.24041 -4.65389 -10.94696 -22.01535 -6.58562 -2.05429 -3.24374 42.71552 9.88566 5.8047 -27.56219 -6.52616 2.23653 3.32297
0.00055 -1e-05 0.00017 -538.81135 -35.49091 -2.72331 43.17924 2.72744 -3.42445 -8.63382 -2.27054 -1.3883 -62.56669 -81.25672 -87.1464 8.12031 76.50771 -4.3713 3.78894 87.17333 97.57708 -55.63411 5.78691 -103.46915 12.18872 -3.22453 38.57349 -4.60012 -10.65344 -22.06084 -6.58849 -2.08432 -3.25634 43.01312 9.89492 5.8226 -27.59076 -6.5273 2.24042 3.32473
0.00052 -1e-05 0.00016 -538.85967 -35.6941 -2.7359 43.37488 2.73364 -3.39376 -8.64892 -2.27436 -1.39041 -62.56669 -81.26418 -87.14639 8.10922 76.51062 -4.38394 3.78325 87.18173 97.57892 -55.63411 5.7869 -103.47205 12.18403 -3.23102 38.8274 -4.55925 -10.43197 -22.09529 -6.59072 -2.10702 -3.26584 43.24045 9.89807 5.81981 -27.61237 -6.52831 2.2451 3.32689
0.00048 -1e-05 0.00015 -538.92436 -35.96069 -2.75228 43.6358 2.74225 -3.35221 -8.66454 -2.27847 -1.38916 -62.56669 -81.27555 -87.14639 8.09181 76.5138 -4.40243 3.77755 87.13421 97.58412 -55.63411 5.7869 -103.46755 12.1791 -3.2314 39.16236 -4.50071 -10.11412 -22.14049 -6.59353 -2.1393 -3.27965 43.53925 9.90187 5.81389 -27.64088 -6.52969 2.25147 3.32988
0.00046 -1e-05 0.00015 -538.96115 -36.12281 -2.76231 43.78837 2.74696 -3.32941 -8.67967 -2.2823 -1.3932 -62.56669 -81.27847 -87.14639 8.08823 76.51704 -4.40998 3.77101 87.20053 97.58218 -55.63411 5.78691 -103.47967 12.17401 -3.24309 39.36338 -4.47376 -9.96733 -22.16826 -6.5954 -2.15468 -3.28576 43.72024 9.90747 5.82585 -27.65813 -6.53034 2.25372 3.33085
0.00045 -1e-05 0.00017 -538.911 -35.94903 -2.75223 43.59367 2.73935 -3.36476 -8.69181 -2.28544 -1.41459 -62.56669 -81.26035 -87.14639 8.11281 76.51998 -4.38927 3.76372 87.57925 97.56254 -55.63411 5.7869 -103.53649 12.16949 -3.29163 39.13429 -4.54426 -10.35187 -22.13925 -6.59422 -2.11745 -3.26791 43.52204 9.91534 5.87803 -27.63878 -6.52885 2.2447 3.3264
0.00045 -0 0.00019 -538.83272 -35.6707 -2.73577 43.29065 2.72776 -3.41895 -8.70362 -2.28816 -1.44128 -62.56669 -81.23336 -87.14639 8.15352 76.52313 -4.35613 3.75569 88.07473 97.5352 -55.63411 5.7869 -103.61127 12.16523 -3.35057 38.77122 -4.6461 -10.90575 -22.09284 -6.59209 -2.06347 -3.24245 43.20607 9.92452 5.94637 -27.60821 -6.52665 2.23169 3.32001
